<svg xmlns="http://www.w3.org/2000/svg" viewBox="0 0 1600 1000" preserveAspectRatio="xMidYMid slice"><defs><radialGradient id="halo"><stop stop-color="#9fbddc" stop-opacity=".52"/><stop offset="1" stop-color="#344d71" stop-opacity="0"/></radialGradient><linearGradient id="mist" x2=".8" y2="1"><stop stop-color="#344d71" stop-opacity=".03"/><stop offset=".5" stop-color="#9fbddc" stop-opacity=".22"/><stop offset="1" stop-color="#344d71" stop-opacity="0"/></linearGradient><linearGradient id="pearl" x2=".8" y2="1"><stop stop-color="#9fbddc"/><stop offset=".55" stop-color="#344d71"/><stop offset="1" stop-color="#0b1422"/></linearGradient><linearGradient id="shade" x2="0" y2="1"><stop stop-color="#344d71" stop-opacity=".55"/><stop offset="1" stop-color="#0b1422"/></linearGradient><linearGradient id="pillar"><stop stop-color="#0b1422"/><stop offset=".7" stop-color="#344d71" stop-opacity=".48"/><stop offset="1" stop-color="#9fbddc" stop-opacity=".24"/></linearGradient><linearGradient id="edge"><stop offset=".35" stop-color="#0b1422" stop-opacity="0"/><stop offset="1" stop-color="#0b1422" stop-opacity=".78"/></linearGradient></defs><g fill="none" stroke="#9fbddc" opacity=".28"><ellipse cx="430" cy="390" rx="305" ry="265"/><path d="M125 390H735M430 110V680" stroke-dasharray="2 15"/></g><circle cx="40" cy="50" r="1.0" fill="#9fbddc" opacity=".45"/><circle cx="177" cy="133" r="1.45" fill="#9fbddc" opacity=".45"/><circle cx="314" cy="216" r="1.9" fill="#9fbddc" opacity=".45"/><circle cx="451" cy="299" r="1.0" fill="#9fbddc" opacity=".45"/><circle cx="588" cy="382" r="1.45" fill="#9fbddc" opacity=".45"/><circle cx="725" cy="465" r="1.9" fill="#9fbddc" opacity=".45"/><circle cx="862" cy="78" r="1.0" fill="#9fbddc" opacity=".45"/><circle cx="999" cy="161" r="1.45" fill="#9fbddc" opacity=".45"/><circle cx="1136" cy="244" r="1.9" fill="#9fbddc" opacity=".45"/><circle cx="1273" cy="327" r="1.0" fill="#9fbddc" opacity=".45"/><circle cx="1410" cy="410" r="1.45" fill="#9fbddc" opacity=".45"/><circle cx="47" cy="493" r="1.9" fill="#9fbddc" opacity=".45"/><circle cx="184" cy="106" r="1.0" fill="#9fbddc" opacity=".45"/><circle cx="321" cy="189" r="1.45" fill="#9fbddc" opacity=".45"/><circle cx="458" cy="272" r="1.9" fill="#9fbddc" opacity=".45"/><circle cx="595" cy="355" r="1.0" fill="#9fbddc" opacity=".45"/><circle cx="732" cy="438" r="1.45" fill="#9fbddc" opacity=".45"/><circle cx="869" cy="51" r="1.9" fill="#9fbddc" opacity=".45"/><circle cx="1006" cy="134" r="1.0" fill="#9fbddc" opacity=".45"/><circle cx="1143" cy="217" r="1.45" fill="#9fbddc" opacity=".45"/><circle cx="1280" cy="300" r="1.9" fill="#9fbddc" opacity=".45"/><circle cx="1417" cy="383" r="1.0" fill="#9fbddc" opacity=".45"/><circle cx="54" cy="466" r="1.45" fill="#9fbddc" opacity=".45"/><circle cx="191" cy="79" r="1.9" fill="#9fbddc" opacity=".45"/><circle cx="328" cy="162" r="1.0" fill="#9fbddc" opacity=".45"/><circle cx="465" cy="245" r="1.45" fill="#9fbddc" opacity=".45"/><circle cx="602" cy="328" r="1.9" fill="#9fbddc" opacity=".45"/><circle cx="739" cy="411" r="1.0" fill="#9fbddc" opacity=".45"/><circle cx="876" cy="494" r="1.45" fill="#9fbddc" opacity=".45"/><circle cx="1013" cy="107" r="1.9" fill="#9fbddc" opacity=".45"/></svg>